<svg xmlns="http://www.w3.org/2000/svg" width="64" height="64" viewBox="0 0 64.1 64.1" fill="none">
  <g clip-path="url(#clip0_0_3616)">
    <rect width="64" height="64" rx="20" fill="#7156FD" fill-opacity="0.2"/>
    <path d="M34.4271 31.9805C34.4271 37.4924 29.8952 41.9607 24.305 41.9607C18.7149 41.9607 14.1826 37.4924 14.1826 31.9805C14.1826 26.4686 18.7146 22 24.305 22C29.8955 22 34.4271 26.4686 34.4271 31.9805Z" fill="#01FFC2"/>
    <path d="M45.5308 31.9808C45.5308 37.1691 43.2648 41.3767 40.4696 41.3767C37.6744 41.3767 35.4084 37.1691 35.4084 31.9808C35.4084 26.7926 37.674 22.585 40.4693 22.585C43.2645 22.585 45.5305 26.7912 45.5305 31.9808" fill="#01FFC2"/>
    <path d="M50.0735 31.981C50.0735 36.6284 49.2767 40.3982 48.2935 40.3982C47.3103 40.3982 46.5138 36.6294 46.5138 31.981C46.5138 27.3325 47.3106 23.5637 48.2935 23.5637C49.2764 23.5637 50.0735 27.3322 50.0735 31.981Z" fill="#01FFC2"/>
  </g>
  <defs>
    <clipPath id="clip0_0_3616">
      <rect width="64" height="64" fill="white"/>
    </clipPath>
  </defs>
</svg>