<svg xmlns="http://www.w3.org/2000/svg" width="93" height="12" viewBox="0 0 93.1 12.1">
  <path d="M47.9375 2.26276V5.58386C47.939 5.83217 47.8908 6.07818 47.7959 6.30782C47.701 6.53738 47.5625 6.74606 47.3865 6.9216C47.2113 7.09721 47.0024 7.23625 46.7728 7.33083C46.5433 7.42541 46.2969 7.47362 46.0489 7.47263H44.318L47.8747 11.6906H46.1905L42.6491 7.47263H38.4896C38.2839 7.46214 38.0788 7.44117 37.8753 7.40972V11.6906H36.5954V0.373991H46.039C46.2877 0.372996 46.5333 0.421205 46.7629 0.515785C46.9932 0.610366 47.2014 0.749404 47.3773 0.92502C47.5526 1.10064 47.6918 1.30923 47.786 1.5388C47.8809 1.76844 47.9291 2.01445 47.9283 2.26276H47.9375ZM38.4939 6.18217H46.0489C46.1278 6.18317 46.2058 6.1684 46.2793 6.13863C46.352 6.10894 46.4185 6.06494 46.4744 6.00916C46.5303 5.95337 46.5739 5.88703 46.6037 5.81403C46.6336 5.74095 46.6481 5.66267 46.6473 5.58386V2.26276C46.6481 2.1828 46.6336 2.10329 46.6045 2.02899C46.5746 1.95469 46.5303 1.88697 46.4744 1.82981C46.4201 1.77127 46.3543 1.72482 46.2808 1.6936C46.2073 1.6623 46.1278 1.647 46.0482 1.64845H38.4928C38.3301 1.64929 38.1744 1.71434 38.0593 1.82935C37.9443 1.94436 37.8793 2.10015 37.8785 2.26276V5.58386C37.8768 5.66374 37.8921 5.74302 37.9234 5.81656C37.9546 5.89009 38.0011 5.95621 38.0598 6.01046C38.1171 6.06647 38.1849 6.11055 38.2595 6.14001C38.334 6.16955 38.4137 6.18386 38.4939 6.18217Z"/>
  <path fill-rule="evenodd" clip-rule="evenodd" d="M54.7064 0.35791H66.0346V1.63773H61.0225V11.6958H59.7423V1.63773H54.7064V0.35791ZM72.9009 11.6905V0.35791H74.1811V11.6905H72.9009ZM91.1902 0.35791H92.8277L88.0903 6.02422L92.843 11.6905H91.1902L86.9723 6.66945H83.3207V11.6905H82.0321V0.35791H83.323V5.37792H86.9746L91.1902 0.35791Z"/>
  <path d="M11.5948 1.63344H2.18194C2.01926 1.63428 1.86346 1.69933 1.74845 1.81434C1.63344 1.92935 1.56847 2.08507 1.56763 2.24775V9.80283C1.5687 9.96536 1.63382 10.121 1.74876 10.2359C1.86369 10.351 2.01933 10.416 2.18194 10.4171H11.5948V11.6969H2.18194C1.93355 11.698 1.68746 11.65 1.45775 11.5555C1.22811 11.4609 1.01943 11.3219 0.843815 11.1462C0.668199 10.9706 0.529162 10.7619 0.434582 10.5323C0.340079 10.3026 0.292024 10.0565 0.293172 9.80819V2.25311C0.292024 2.00472 0.340079 1.75863 0.434582 1.52899C0.529162 1.29927 0.668199 1.0906 0.843815 0.914984C1.01943 0.739368 1.22811 0.600329 1.45775 0.505826C1.68746 0.411246 1.93355 0.36319 2.18194 0.364338H11.5948V1.63344Z"/>
  <path d="M29.2699 0.35791V1.63773H20.2047V5.37792H27.4909V6.66838H20.2036V10.415H29.2688V11.6948H18.9238V0.35791H29.2699Z"/>
</svg>