<svg xmlns="http://www.w3.org/2000/svg" width="64" height="64" viewBox="0 0 64 64" fill="none">
  <g clip-path="url(#clip0_0_3591)">
    <rect width="64" height="64" rx="20" fill="#7156FD" fill-opacity="0.2"/>
    <path d="M45.3221 20.321C42.9638 19.2467 40.4349 18.4552 37.7908 18.0019C37.7427 17.9932 37.6946 18.015 37.6698 18.0587C37.3445 18.6331 36.9843 19.3823 36.732 19.9712C33.8881 19.5485 31.0588 19.5485 28.2732 19.9712C28.0209 19.3692 27.6476 18.6331 27.3209 18.0587C27.2961 18.0165 27.248 17.9946 27.1998 18.0019C24.5572 18.4538 22.0283 19.2453 19.6686 20.321C19.6482 20.3298 19.6307 20.3444 19.619 20.3633C14.8223 27.4782 13.5083 34.4182 14.1529 41.2721C14.1558 41.3056 14.1748 41.3377 14.201 41.3581C17.3658 43.6655 20.4314 45.0664 23.4401 45.9949C23.4882 46.0095 23.5392 45.992 23.5699 45.9526C24.2816 44.9877 24.916 43.9702 25.4599 42.9003C25.492 42.8376 25.4614 42.7633 25.3958 42.7385C24.3895 42.3595 23.4313 41.8974 22.5096 41.3727C22.4367 41.3304 22.4308 41.2269 22.4979 41.1773C22.6919 41.033 22.8859 40.8829 23.0711 40.7313C23.1046 40.7036 23.1513 40.6977 23.1907 40.7152C29.246 43.46 35.8015 43.46 41.7854 40.7152C41.8248 40.6963 41.8715 40.7021 41.9064 40.7298C42.0917 40.8814 42.2857 41.033 42.4811 41.1773C42.5482 41.2269 42.5438 41.3304 42.4709 41.3727C41.5492 41.9076 40.591 42.3595 39.5832 42.737C39.5176 42.7618 39.4884 42.8376 39.5205 42.9003C40.0761 43.9687 40.7106 44.9862 41.4091 45.9512C41.4383 45.992 41.4908 46.0095 41.5389 45.9949C44.5622 45.0664 47.6278 43.6655 50.7925 41.3581C50.8203 41.3377 50.8378 41.3071 50.8407 41.2735C51.6122 33.3496 49.5485 26.4666 45.3702 20.3648C45.3599 20.3444 45.3425 20.3298 45.3221 20.321ZM26.3642 37.0988C24.5411 37.0988 23.039 35.4371 23.039 33.3963C23.039 31.3556 24.512 29.6939 26.3642 29.6939C28.2309 29.6939 29.7185 31.3702 29.6894 33.3963C29.6894 35.4371 28.2163 37.0988 26.3642 37.0988ZM38.6586 37.0988C36.8356 37.0988 35.3334 35.4371 35.3334 33.3963C35.3334 31.3556 36.8064 29.6939 38.6586 29.6939C40.5254 29.6939 42.0129 31.3702 41.9838 33.3963C41.9838 35.4371 40.5254 37.0988 38.6586 37.0988Z" fill="#01FFC2"/>
  </g>
  <defs>
    <clipPath id="clip0_0_3591">
      <rect width="64" height="64" fill="white"/>
    </clipPath>
  </defs>
</svg>