<svg xmlns="http://www.w3.org/2000/svg" width="64" height="64" viewBox="0 0 64.1 64.1" fill="none">
  <g clip-path="url(#clip0_0_3600)">
    <rect width="64" height="64" rx="20" fill="#7156FD" fill-opacity="0.2"/>
    <path d="M27.9619 46.3456C27.9677 46.2549 27.9677 46.1639 27.9619 46.0732V32.1373H25.0996V27.2828H28.021V26.9157C28.021 25.8264 28.021 24.7371 28.021 23.6478C28.0295 22.4474 28.3561 21.2707 28.9673 20.2378C29.5435 19.2957 30.4644 18.616 31.5339 18.3434C32.1607 18.153 32.8079 18.0377 33.4618 18C35.0467 18 36.6435 18 38.1929 18V22.8545H37.8972H35.2597C35.076 22.8638 34.8937 22.8916 34.7156 22.9374C34.4705 22.9897 34.2514 23.1259 34.096 23.3226C33.9405 23.5193 33.8584 23.7641 33.8639 24.0149C33.8639 25.0568 33.8639 26.1224 33.8639 27.1762C33.8639 27.1762 33.8639 27.1762 33.8639 27.2472H38.252L37.7316 32.1373H33.8166V46.014C33.8166 46.1324 33.8166 46.2508 33.8166 46.3692L27.9619 46.3456Z" fill="#01FFC2"/>
  </g>
  <defs>
    <clipPath id="clip0_0_3600">
      <rect width="64" height="64" fill="white"/>
    </clipPath>
  </defs>
</svg>