<svg xmlns="http://www.w3.org/2000/svg" width="40" height="52" viewBox="0 0 40.1 52.1" fill="none">
  <path d="M26.9009 19.5205L9.85571 10.395C8.96993 9.92082 8.00946 9.89658 7.17816 10.1997L21.6999 24.7214L26.9009 19.5205Z" fill="#01FFC2"/>
  <path d="M33.2581 22.9231L28.3482 20.2946L22.8112 25.8315L28.3482 31.3685L33.258 28.7399C35.5806 27.4965 35.5806 24.1665 33.2581 22.9231Z" fill="#01FFC2"/>
  <path d="M5.84908 11.0908C5.32827 11.6632 5 12.4274 5 13.3029V38.3601C5 39.2357 5.32827 39.9999 5.84901 40.5723L20.5898 25.8315L5.84908 11.0908Z" fill="#01FFC2"/>
  <path d="M7.17816 41.4647C8.0094 41.7677 8.96993 41.7436 9.85571 41.2693L26.9009 32.1438L21.7 26.9429L7.17816 41.4647Z" fill="#01FFC2"/>
</svg>