<svg xmlns="http://www.w3.org/2000/svg" width="64" height="64" viewBox="0 0 64.1 64.1" fill="none">
  <g clip-path="url(#clip0_0_3594)">
    <rect width="64" height="64" rx="20" fill="#7156FD" fill-opacity="0.2"/>
    <path d="M17.141 32.0244L24.2117 34.3297L26.9126 42.9823C27.24 43.9292 27.0763 44.3049 28.0322 44.3049C28.7689 44.3049 29.0962 43.9548 29.5055 43.5365C29.7657 43.2701 31.3126 41.7016 33.0404 39.9504L40.3943 45.6189C41.7472 46.3976 42.7244 45.9938 43.0616 44.3075L47.8906 20.5763C48.3816 18.5092 47.1351 17.5717 45.8444 18.1856L17.4937 29.5876C15.5589 30.397 15.5712 31.5223 17.141 32.0244ZM41.2561 23.3094C42.0517 22.8065 42.7809 23.0772 42.1826 23.6313L28.5372 36.4745L28.006 42.3864L25.3207 33.7978L41.2561 23.3094Z" fill="#01FFC2"/>
  </g>
  <defs>
    <clipPath id="clip0_0_3594">
      <rect width="64" height="64" fill="white"/>
    </clipPath>
  </defs>
</svg>