<svg xmlns="http://www.w3.org/2000/svg" width="64" height="64" viewBox="0 0 64.1 64.1" fill="none">
  <g clip-path="url(#clip0_0_3597)">
    <rect width="64" height="64" rx="20" fill="#7156FD" fill-opacity="0.2"/>
    <path d="M47.7987 21.7535C45.7121 22.4896 45.4542 22.3961 46.4506 21.2745C47.2111 20.5254 47.7921 19.6148 48.1503 18.6106C48.1503 18.5288 47.7869 18.6106 47.3649 18.8793C46.6717 19.2214 45.9501 19.5029 45.2081 19.7206L43.8835 20.1412L42.7112 19.3233C42.061 18.8806 41.3607 18.5159 40.6247 18.2367C39.2072 17.892 37.7237 17.9243 36.3226 18.3302C34.8531 18.8333 33.5897 19.8028 32.7259 21.0901C31.862 22.3774 31.4455 23.9115 31.54 25.4573L31.6103 26.6257L30.4381 26.4855C25.9937 25.9366 21.8643 23.9116 18.7159 20.7371L17.0866 19.1247L16.6763 20.2931C16.2255 21.5351 16.1292 22.8775 16.3983 24.1708C16.6673 25.4642 17.2911 26.6577 18.2002 27.6188C19.1848 28.6586 18.9621 28.7871 17.2624 28.1913C16.6763 27.9927 16.1605 27.8408 16.0902 27.9226C16.1612 29.0718 16.46 30.1956 16.9693 31.229C17.7546 32.5937 18.9243 33.6986 20.3336 34.407L21.5058 34.9678H20.0757C18.7042 34.9678 18.6573 34.9678 18.798 35.517C19.2307 36.4808 19.8642 37.3419 20.6565 38.0429C21.4488 38.7439 22.3816 39.2689 23.3931 39.5829L24.917 40.097L23.5924 40.8915C21.5813 42.0339 19.3184 42.664 17.0045 42.7258C16.3301 42.6925 15.6546 42.7594 15 42.9245C16.4554 43.86 18.0332 44.5912 19.6889 45.0976C22.3604 45.9114 25.1694 46.1787 27.9472 45.8836C30.725 45.5884 33.4143 44.7369 35.8538 43.3801C39.489 41.0665 42.3467 37.7217 44.0593 33.7761C44.9907 31.4016 45.5558 28.9002 45.7356 26.3569C45.7356 25.1886 45.8059 25.06 47.1774 23.7047C47.8046 23.1195 48.381 22.4824 48.9005 21.8003C49.1115 21.3329 49.0881 21.3329 47.7987 21.7535Z" fill="#01FFC2"/>
  </g>
  <defs>
    <clipPath id="clip0_0_3597">
      <rect width="64" height="64" fill="white"/>
    </clipPath>
  </defs>
</svg>