<svg xmlns="http://www.w3.org/2000/svg" width="32" height="34" viewBox="0 0 32 34" fill="none">
  <path fill-rule="evenodd" clip-rule="evenodd" d="M29.7444 5.21166L29.9234 6.29358C30.0644 7.30005 30.1297 8.3157 30.1189 9.33198C30.1177 11.5778 29.8468 13.8153 29.3119 15.9965C28.5886 18.9598 27.3287 21.7656 25.5948 24.2749C23.591 27.1569 20.6938 29.9915 16.4706 32.2691L15.954 32.5475L15.4374 32.2691C11.2142 29.9915 8.31819 27.1569 6.31326 24.2749C4.57926 21.7656 3.31943 18.9598 2.59607 15.9965C2.06134 13.8157 1.79041 11.5786 1.78913 9.33317C1.77821 8.31688 1.84357 7.30124 1.98465 6.29476L2.16357 5.21285C2.17884 5.12462 2.1765 5.03423 2.15669 4.9469C2.13688 4.85958 2.09998 4.77704 2.04812 4.70404C1.99626 4.63104 1.93047 4.56902 1.85453 4.52157C1.7786 4.47411 1.69403 4.44215 1.60569 4.42754C1.51735 4.41291 1.42699 4.41592 1.33982 4.43639C1.25264 4.45684 1.17039 4.49436 1.09778 4.54676C1.02517 4.59916 0.963648 4.66541 0.916759 4.7417C0.86987 4.81799 0.838541 4.9028 0.824577 4.99125L0.64565 6.07316C0.491748 7.15283 0.42005 8.24261 0.431175 9.33317C0.432027 11.6892 0.716083 14.0365 1.27723 16.3247C2.04108 19.4495 3.37081 22.4079 5.20059 25.0535C7.31573 28.0978 10.3836 31.0912 14.7987 33.4671L15.6376 33.9185C15.7365 33.972 15.847 34 15.9593 34C16.0716 34 16.1822 33.972 16.281 33.9185L17.1188 33.4671C21.5292 31.09 24.5982 28.0978 26.7169 25.0535C28.5458 22.4081 29.8747 19.4501 30.6378 16.3259C31.199 14.0377 31.4831 11.6904 31.4839 9.33436C31.4951 8.2438 31.4233 7.15402 31.2695 6.07436L31.0905 4.99244C31.0766 4.90398 31.0452 4.81917 30.9983 4.74289C30.9515 4.6666 30.8899 4.60035 30.8173 4.54795C30.7447 4.49555 30.6624 4.45803 30.5753 4.43757C30.4881 4.4171 30.3977 4.4141 30.3094 4.42872C30.2211 4.44334 30.1365 4.47529 30.0605 4.52275C29.9846 4.57021 29.9188 4.63222 29.867 4.70522C29.8152 4.77822 29.7783 4.86076 29.7584 4.94809C29.7386 5.03542 29.7363 5.1258 29.7516 5.21404L29.7444 5.21166Z" fill="white"/>
  <path fill-rule="evenodd" clip-rule="evenodd" d="M5.87143 4.47459L15.9557 1.39358L26.265 4.54095C26.4376 4.59255 26.6236 4.57367 26.7824 4.48846C26.941 4.40324 27.0595 4.25862 27.1118 4.08624C27.1642 3.91387 27.1461 3.72778 27.0616 3.56871C26.9771 3.40963 26.833 3.29052 26.6608 3.23745L16.1535 0.0296403C16.0246 -0.00988009 15.8867 -0.00988009 15.7577 0.0296403L5.47447 3.16871C5.38853 3.19441 5.30852 3.23682 5.23901 3.29351C5.16951 3.35021 5.1119 3.42008 5.06947 3.4991C5.02704 3.57812 5.00064 3.66475 4.99177 3.754C4.98291 3.84326 4.99176 3.93338 5.01782 4.0192C5.04388 4.10503 5.08663 4.18486 5.14362 4.25412C5.20061 4.32338 5.27072 4.3807 5.34993 4.42279C5.42913 4.46488 5.51587 4.49091 5.60516 4.4994C5.69445 4.50787 5.78454 4.49864 5.87025 4.47222L5.87143 4.47459Z" fill="white"/>
  <path fill-rule="evenodd" clip-rule="evenodd" d="M0.891937 5.41074L15.3493 33.6283C15.4056 33.7386 15.4912 33.8313 15.5965 33.8964C15.7019 33.9615 15.823 33.9965 15.9469 33.9976C16.0707 33.9987 16.1924 33.9659 16.299 33.9026C16.4054 33.8394 16.4926 33.7482 16.5509 33.6389L25.3675 17.1495L25.3805 17.1234L31.0237 5.39178C31.1001 5.22988 31.1096 5.04434 31.05 4.87548C30.9905 4.70662 30.8667 4.56809 30.7055 4.49003C30.5444 4.41196 30.359 4.40064 30.1895 4.45855C30.0201 4.51646 29.8804 4.63891 29.8007 4.79927L24.1671 16.5214L15.9738 31.8554L2.09948 4.78979C2.05949 4.70944 2.00396 4.6378 1.93609 4.57906C1.86822 4.52032 1.78937 4.47562 1.7041 4.44757C1.61884 4.41952 1.52886 4.40867 1.43936 4.41564C1.34988 4.42262 1.26266 4.44728 1.18277 4.48821C1.10288 4.52913 1.03191 4.5855 0.973961 4.65405C0.916015 4.7226 0.872248 4.80197 0.845197 4.88755C0.818146 4.97315 0.808348 5.06325 0.816371 5.15265C0.824395 5.24205 0.850079 5.32897 0.891937 5.40837V5.41074Z" fill="white"/>
  <path fill-rule="evenodd" clip-rule="evenodd" d="M7.81236 17.9771H23.8892C24.0692 17.9771 24.2417 17.9057 24.3689 17.7784C24.4961 17.6512 24.5676 17.4787 24.5676 17.2987C24.5676 17.1188 24.4961 16.9463 24.3689 16.819C24.2417 16.6918 24.0692 16.6203 23.8892 16.6203H7.81236C7.63244 16.6203 7.45988 16.6918 7.33265 16.819C7.20543 16.9463 7.13395 17.1188 7.13395 17.2987C7.13395 17.4787 7.20543 17.6512 7.33265 17.7784C7.45988 17.9057 7.63244 17.9771 7.81236 17.9771Z" fill="white"/>
</svg>