<svg xmlns="http://www.w3.org/2000/svg" width="92" height="19" viewBox="0 0 92 19" fill="none">
  <path d="M10.2121 13.9377C9.9594 13.9377 9.73604 13.9795 9.54438 14.0621C9.34936 14.1462 9.19036 14.2533 9.06643 14.3873C8.9401 14.5209 8.82145 14.6703 8.71049 14.8307C8.59953 14.9935 8.47896 15.154 8.34879 15.3168C8.21861 15.4792 8.07547 15.6266 7.91647 15.7602C7.75796 15.8942 7.54949 16.0013 7.28914 16.0854C7.02879 16.1675 6.73433 16.2098 6.40385 16.2098C5.4494 16.2098 4.71495 15.8846 4.19665 15.2342C3.68027 14.5843 3.42233 13.6985 3.42233 12.5779C3.42233 11.8127 3.51023 11.1512 3.68796 10.5907C3.86569 10.0306 4.10682 9.60209 4.41088 9.30188C4.71495 9.00358 5.03438 8.78358 5.36918 8.64572C5.70399 8.50786 6.0556 8.43917 6.42883 8.43917C6.89381 8.43917 7.28578 8.50978 7.60521 8.6534C7.92656 8.79511 8.16578 8.96899 8.32813 9.17362C8.49049 9.37825 8.63988 9.58288 8.77774 9.78751C8.9156 9.99214 9.08757 10.166 9.29219 10.3077C9.49682 10.4494 9.74949 10.522 10.0497 10.522C10.5219 10.522 10.9143 10.3899 11.2261 10.1262C11.5378 9.86196 11.693 9.48537 11.693 8.99589C11.693 8.14471 11.192 7.37759 10.1914 6.69502C9.1894 6.01436 7.97075 5.67188 6.53643 5.67188C4.41569 5.67188 2.77626 6.30113 1.62102 7.55965C0.465776 8.81768 -0.113525 10.4874 -0.113525 12.5779C-0.113525 13.5169 0.0185707 14.372 0.282282 15.1444C0.545994 15.9172 0.936518 16.5921 1.45289 17.1681C1.96927 17.7435 2.64224 18.1893 3.47036 18.5049C4.29848 18.8205 5.24525 18.9771 6.30874 18.9771C7.17722 18.9771 7.96499 18.8584 8.67447 18.6216C9.38394 18.3862 9.95027 18.0822 10.373 17.7109C10.7957 17.34 11.1209 16.9442 11.3481 16.5215C11.5758 16.0988 11.6906 15.6876 11.6906 15.2861C11.6906 14.9224 11.5527 14.6069 11.2775 14.3393C11.0003 14.0717 10.6463 13.9377 10.214 13.9377H10.2121Z" fill="white"/>
  <path d="M25.1754 8.08909C24.9156 7.46223 24.5635 6.97804 24.1216 6.63939C23.6796 6.30123 23.2094 6.05433 22.7084 5.90158C22.2074 5.74834 21.6737 5.67005 21.104 5.67005C19.417 5.67005 18.0994 6.29354 17.1546 7.5386H17.107V2.66546C17.107 2.09721 16.9485 1.66153 16.6291 1.35939C16.3096 1.05485 15.8773 0.9021 15.334 0.9021C14.7908 0.9021 14.3585 1.05485 14.0448 1.35939C13.7292 1.66345 13.5707 2.09721 13.5707 2.66546V17.2023C13.5707 18.3863 14.1577 18.9772 15.334 18.9772C16.5104 18.9772 17.1089 18.3863 17.1089 17.2023V11.3713C17.1089 10.5355 17.388 9.86205 17.9486 9.34952C18.5091 8.83699 19.123 8.58096 19.7922 8.58096C20.5266 8.58096 21.0833 8.80096 21.4599 9.2424C21.8385 9.68433 22.0282 10.279 22.0282 11.0288V17.2023C22.0282 18.3863 22.6152 18.9772 23.7896 18.9772C24.9641 18.9772 25.5645 18.3863 25.5645 17.2023V10.3174C25.5645 9.45856 25.4343 8.7145 25.1745 8.08717L25.1764 8.08909H25.1754Z" fill="white"/>
  <path d="M40.5942 12.6794C40.8103 12.469 40.9194 12.0655 40.9194 11.467C40.9194 10.7326 40.7724 10.0212 40.4813 9.33235C40.1888 8.64209 39.7795 8.02628 39.2516 7.48108C38.7218 6.93829 38.0488 6.50021 37.2284 6.16733C36.4079 5.83637 35.5053 5.67017 34.5202 5.67017C32.445 5.67017 30.8138 6.2975 29.624 7.55217C28.4327 8.80493 27.838 10.4741 27.838 12.555C27.838 13.1939 27.9125 13.8116 28.0619 14.4063C28.2112 15.0014 28.4615 15.5807 28.8136 16.1394C29.1638 16.6995 29.5942 17.1889 30.1029 17.6059C30.6115 18.0247 31.2562 18.3576 32.0363 18.6065C32.8168 18.8548 33.6848 18.9792 34.6393 18.9792C35.0812 18.9792 35.5457 18.9393 36.0352 18.8606C36.5232 18.7823 37.0165 18.6559 37.5137 18.4878C38.0108 18.3197 38.4547 18.1131 38.8486 17.8739C39.2425 17.6328 39.5638 17.3383 39.8146 16.9862C40.0629 16.6365 40.1854 16.2537 40.1854 15.8444C40.1854 15.4986 40.0461 15.183 39.7665 14.8982C39.4874 14.6147 39.1411 14.4735 38.7319 14.4735C38.472 14.4735 38.2347 14.5326 38.0224 14.6493C37.8101 14.768 37.6131 14.913 37.4315 15.0816C37.25 15.2498 37.0492 15.4222 36.8292 15.5961C36.6073 15.7681 36.309 15.9155 35.9357 16.0342C35.5611 16.1523 35.1288 16.2119 34.6412 16.2119C33.6315 16.2119 32.8356 15.9136 32.2524 15.3189C31.6693 14.7238 31.3763 13.9495 31.3763 12.995H39.3726C39.9712 12.995 40.3804 12.8898 40.5966 12.6813L40.5946 12.6794H40.5942ZM31.3739 10.9583C31.5785 10.0745 31.9517 9.38615 32.4912 8.88899C33.0301 8.39183 33.7324 8.143 34.5908 8.143C35.3733 8.143 36.0405 8.41056 36.5953 8.94039C37.152 9.47213 37.4767 10.1456 37.5709 10.9583H31.3739Z" fill="white"/>
  <path d="M55.4163 12.6794C55.6325 12.469 55.7415 12.0655 55.7415 11.467C55.7415 10.7326 55.594 10.0212 55.3034 9.33235C55.0109 8.64209 54.6016 8.02628 54.0737 7.48108C53.5439 6.93829 52.8709 6.50021 52.05 6.16733C51.2296 5.83637 50.327 5.67017 49.3423 5.67017C47.2672 5.67017 45.6359 6.2975 44.4461 7.55217C43.2548 8.80493 42.6597 10.4741 42.6597 12.555C42.6597 13.1939 42.7346 13.8116 42.8835 14.4063C43.0329 15.0014 43.2832 15.5807 43.6353 16.1394C43.985 16.6995 44.4153 17.1889 44.924 17.6059C45.4327 18.0247 46.0774 18.3576 46.8579 18.6065C47.638 18.8548 48.5065 18.9792 49.4609 18.9792C49.9024 18.9792 50.3674 18.9393 50.8568 18.8606C51.3444 18.7823 51.8382 18.6559 52.3353 18.4878C52.8325 18.3197 53.2764 18.1131 53.6702 17.8739C54.0641 17.6347 54.3855 17.3383 54.6357 16.9862C54.8846 16.6365 55.007 16.2537 55.007 15.8444C55.007 15.4986 54.8673 15.183 54.5882 14.8982C54.3091 14.6147 53.9628 14.4735 53.5535 14.4735C53.2932 14.4735 53.0563 14.5326 52.844 14.6493C52.6317 14.768 52.4348 14.913 52.2532 15.0816C52.0712 15.2498 51.8704 15.4222 51.6504 15.5961C51.4289 15.7681 51.1301 15.9155 50.7574 16.0342C50.3827 16.1523 49.9504 16.2119 49.4629 16.2119C48.4527 16.2119 47.6572 15.9136 47.0741 15.3189C46.4905 14.7238 46.1979 13.9495 46.1979 12.995H54.1943C54.7928 12.995 55.2021 12.8898 55.4182 12.6813L55.4163 12.6794ZM46.196 10.9583C46.4006 10.0745 46.7739 9.38615 47.3128 8.88899C47.8522 8.39183 48.554 8.143 49.4129 8.143C50.1949 8.143 50.8626 8.41056 51.4174 8.94039C51.9736 9.47213 52.2988 10.1456 52.3925 10.9583H46.196Z" fill="white"/>
  <path d="M61.2645 1.35939C60.9489 1.05485 60.519 0.9021 59.9738 0.9021C59.4286 0.9021 58.9982 1.05485 58.6788 1.35939C58.3594 1.66345 58.2009 2.09721 58.2009 2.66546V17.2023C58.2009 17.7705 58.3594 18.2086 58.6788 18.5165C58.9982 18.8244 59.4306 18.9772 59.9738 18.9772C60.5171 18.9772 60.9489 18.8244 61.2645 18.5165C61.5782 18.2086 61.7372 17.7705 61.7372 17.2023V2.66546C61.7372 2.09721 61.5782 1.66153 61.2645 1.35939Z" fill="white"/>
  <path d="M76.9662 12.6794C77.1824 12.469 77.2914 12.0655 77.2914 11.467C77.2914 10.7326 77.1444 10.0212 76.8538 9.33235C76.5608 8.64209 76.1516 8.02628 75.6237 7.48108C75.0943 6.93829 74.4209 6.50021 73.6004 6.16733C72.78 5.83637 71.8774 5.67017 70.8922 5.67017C68.8171 5.67017 67.1859 6.2975 65.9965 7.55217C64.8048 8.80493 64.2101 10.4741 64.2101 12.555C64.2101 13.1939 64.2845 13.8116 64.4339 14.4063C64.5828 15.0014 64.8336 15.5807 65.1852 16.1394C65.5354 16.6995 65.9658 17.1889 66.4745 17.6059C66.9831 18.0247 67.6278 18.3576 68.4079 18.6065C69.1884 18.8548 70.0564 18.9792 71.0109 18.9792C71.4528 18.9792 71.9173 18.9393 72.4072 18.8606C72.8948 18.7823 73.3881 18.6559 73.8853 18.4878C74.3824 18.3197 74.8263 18.1131 75.2202 17.8739C75.6145 17.6347 75.9354 17.3383 76.1862 16.9862C76.435 16.6365 76.557 16.2537 76.557 15.8444C76.557 15.4986 76.4177 15.183 76.1386 14.8982C75.859 14.6128 75.5132 14.4735 75.1039 14.4735C74.8436 14.4735 74.6063 14.5326 74.394 14.6493C74.1817 14.768 73.9847 14.913 73.8031 15.0816C73.6216 15.2498 73.4208 15.4222 73.2008 15.5961C72.9789 15.7681 72.6806 15.9155 72.3078 16.0342C71.9327 16.1523 71.5003 16.2119 71.0128 16.2119C70.0031 16.2119 69.2076 15.9136 68.624 15.3189C68.0409 14.7238 67.7483 13.9495 67.7483 12.995H75.7442C76.3432 12.995 76.7525 12.8898 76.9682 12.6813L76.9662 12.6794ZM67.7464 10.9583C67.951 10.0745 68.3238 9.38615 68.8632 8.88899C69.4027 8.39183 70.1044 8.143 70.9633 8.143C71.7453 8.143 72.413 8.41056 72.9673 8.94039C73.5241 9.47213 73.8493 10.1456 73.9429 10.9583H67.7464Z" fill="white"/>
  <path d="M91.7884 12.6794C92.0045 12.469 92.1136 12.0655 92.1136 11.467C92.1136 10.7326 91.9661 10.0212 91.6755 9.33235C91.383 8.64209 90.9737 8.02628 90.4458 7.48108C89.916 6.93829 89.243 6.50021 88.4226 6.16733C87.6021 5.83637 86.6991 5.67017 85.7144 5.67017C83.6393 5.67017 82.008 6.2975 80.8182 7.55217C79.6269 8.80493 79.0322 10.4741 79.0322 12.555C79.0322 13.1939 79.1067 13.8116 79.2556 14.4063C79.405 15.0014 79.6552 15.5807 80.0073 16.1394C80.3575 16.6995 80.7879 17.1889 81.2966 17.6059C81.8053 18.0247 82.4494 18.3576 83.23 18.6065C84.0101 18.8548 84.8786 18.9792 85.833 18.9792C86.2745 18.9792 86.7394 18.9393 87.2289 18.8606C87.7169 18.7823 88.2103 18.6559 88.7074 18.4878C89.2046 18.3197 89.6484 18.1131 90.0423 17.8739C90.4362 17.6347 90.7576 17.3383 91.0083 16.9862C91.2566 16.6365 91.3791 16.2537 91.3791 15.8444C91.3791 15.4986 91.2393 15.183 90.9603 14.8982C90.6812 14.6147 90.3348 14.4735 89.9256 14.4735C89.6657 14.4735 89.4284 14.5326 89.2161 14.6493C89.0038 14.768 88.8069 14.913 88.6253 15.0816C88.4432 15.2498 88.2424 15.4222 88.0229 15.5961C87.801 15.7681 87.5027 15.9155 87.1295 16.0342C86.7548 16.1523 86.3225 16.2119 85.8349 16.2119C84.8248 16.2119 84.0293 15.9136 83.4462 15.3189C82.8625 14.7238 82.57 13.9495 82.57 12.995H90.5664C91.1649 12.995 91.5741 12.8898 91.7903 12.6813L91.7884 12.6794ZM82.5681 10.9583C82.7727 10.0745 83.1459 9.38615 83.6854 8.88899C84.2243 8.39183 84.9266 8.143 85.785 8.143C86.5675 8.143 87.2347 8.41056 87.7895 8.94039C88.3457 9.47213 88.6709 10.1456 88.7646 10.9583H82.5681Z" fill="white"/>
</svg>